# xmcd
#
# Track frame offsets: 
#        150
#        23855
#        38357
#        57252
#        71995
#        99810
#        111925
#        127220
#        135550
#        158262
#        171872
#        186345
#
# Disc length: 2806 seconds
#
# Revision: 7
# Processed by: cddbd v1.5.2PL0 Copyright (c) Steve Scherf et al.
# Submitted via: ExactAudioCopy v1.0b1
#
DISCID=9d0af40c
DTITLE=Various / Fame (Soundtrack)
DYEAR=1980
DGENRE=Soundtrack
TTITLE0=Irene Cara / Fame
TTITLE1=Irene Cara / Out Here On My Own
TTITLE2=Irene Cara / Hot Lunch Jam
TTITLE3=Paul McCrane / Dogs In The Yard
TTITLE4=Linda Clifford / Red Light
TTITLE5=Paul McCrane / Is It Ok If I Call You Mine?
TTITLE6=Contemporary Gospel Chorus, The High School Of Music & Art / N
TTITLE6=ever Alone
TTITLE7=Instrumental / Ralph And Monty (Dressing Room Piano)
TTITLE8=Laura Dern, Irene Cara, Paul McCrane, Traci Parnell, Eric Broc
TTITLE8=kington / I Sing The Body Electric
TTITLE9=Paul McCrane / Miles From Here
TTITLE10=Irene Cara / Out Here On My Own (Instrumental)
TTITLE11=Irene Cara / Fame (Instrumental)
EXTD=YEAR: 1980
EXTT0=
EXTT1=
EXTT2=
EXTT3=
EXTT4=
EXTT5=
EXTT6=
EXTT7=
EXTT8=
EXTT9=
EXTT10=
EXTT11=
PLAYORDER=
.
